<svg xmlns="http://www.w3.org/2000/svg" viewBox="0 15 53.29999923706055 35.400001525878906" data-asc="1" width="53.29999923706055" height="35.400001525878906"><defs/><g fill="#fda92d"><g transform="translate(0, 0)"><path d="M15.05 15Q18.45 15 21.07 16.40Q23.70 17.80 25.13 20.32Q26.55 22.85 26.55 26.15Q26.55 29.40 25.07 31.90Q23.60 34.40 20.90 35.75Q18.20 37.10 14.65 37.10L8.55 37.10Q8.30 37.10 8.30 37.35L8.30 49.40Q8.30 49.65 8.13 49.83Q7.95 50 7.70 50L0.60 50Q0.35 50 0.17 49.83Q0 49.65 0 49.40L0 15.60Q0 15.35 0.17 15.17Q0.35 15 0.60 15L15.05 15M13.70 30.50Q15.75 30.50 17.03 29.35Q18.30 28.20 18.30 26.35Q18.30 24.45 17.03 23.27Q15.75 22.10 13.70 22.10L8.55 22.10Q8.30 22.10 8.30 22.35L8.30 30.25Q8.30 30.50 8.55 30.50L13.70 30.50ZM52.30 33.20Q53.30 35.60 53.30 38.35Q53.30 41.05 52.30 43.40Q51 46.65 48.05 48.52Q45.10 50.40 41.10 50.40Q37.20 50.40 34.20 48.48Q31.20 46.55 29.85 43.25Q29.05 41.25 28.90 38.85Q28.90 38.25 29.50 38.25L36.70 38.25Q37.30 38.25 37.35 38.85Q37.45 40.10 37.95 41.25Q38.35 42.25 39.15 42.77Q39.95 43.30 41.05 43.30Q43.15 43.30 44.20 41.40Q44.90 40.15 44.90 38.10Q44.90 36.10 44.20 34.60Q43.15 32.75 41 32.75Q40.45 32.75 39.78 33.13Q39.10 33.50 38.05 34.25Q37.80 34.40 37.65 34.40Q37.35 34.40 37.20 34.10L33.65 29.10Q33.50 28.85 33.50 28.70Q33.50 28.40 33.75 28.25L41.45 22.40Q41.55 22.30 41.53 22.20Q41.50 22.10 41.35 22.10L30.40 22.10Q30.15 22.10 29.98 21.92Q29.80 21.75 29.80 21.50L29.80 15.60Q29.80 15.35 29.98 15.17Q30.15 15 30.40 15L52.20 15Q52.45 15 52.63 15.17Q52.80 15.35 52.80 15.60L52.80 22.25Q52.80 22.70 52.45 23L46.40 27.75Q46.30 27.85 46.33 27.95Q46.35 28.05 46.50 28.10Q50.50 29.15 52.30 33.20Z"/></g></g></svg>