<svg xmlns="http://www.w3.org/2000/svg" viewBox="0 13.149999618530273 187.60000610351562 37.25" data-asc="1" width="187.60000610351562" height="37.25"><defs/><g fill="#fda92d"><g transform="translate(0, 0)"><path d="M15.05 15Q18.45 15 21.07 16.40Q23.70 17.80 25.13 20.32Q26.55 22.85 26.55 26.15Q26.55 29.40 25.07 31.90Q23.60 34.40 20.90 35.75Q18.20 37.10 14.65 37.10L8.55 37.10Q8.30 37.10 8.30 37.35L8.30 49.40Q8.30 49.65 8.13 49.83Q7.95 50 7.70 50L0.60 50Q0.35 50 0.17 49.83Q0 49.65 0 49.40L0 15.60Q0 15.35 0.17 15.17Q0.35 15 0.60 15L15.05 15M13.70 30.50Q15.75 30.50 17.03 29.35Q18.30 28.20 18.30 26.35Q18.30 24.45 17.03 23.27Q15.75 22.10 13.70 22.10L8.55 22.10Q8.30 22.10 8.30 22.35L8.30 30.25Q8.30 30.50 8.55 30.50L13.70 30.50ZM44.65 24.75Q44.65 24.50 44.83 24.32Q45 24.15 45.25 24.15L52.35 24.15Q52.60 24.15 52.78 24.32Q52.95 24.50 52.95 24.75L52.95 49.40Q52.95 49.65 52.78 49.83Q52.60 50 52.35 50L45.25 50Q45 50 44.83 49.83Q44.65 49.65 44.65 49.40L44.65 47.65Q44.65 47.50 44.55 47.45Q44.45 47.40 44.35 47.55Q42.35 50.40 38.05 50.40Q34.25 50.40 31.90 48Q29.55 45.60 29.55 41.30L29.55 24.75Q29.55 24.50 29.73 24.32Q29.90 24.15 30.15 24.15L37.25 24.15Q37.50 24.15 37.68 24.32Q37.85 24.50 37.85 24.75L37.85 39.40Q37.85 41.15 38.75 42.20Q39.65 43.25 41.20 43.25Q42.60 43.25 43.53 42.40Q44.45 41.55 44.65 40.15L44.65 24.75ZM81.15 30.65Q82.20 33.45 82.20 36.95Q82.20 40.05 81.40 42.75Q80.30 46.30 77.68 48.35Q75.05 50.40 71.65 50.40Q67.85 50.40 65.85 47.60Q65.75 47.45 65.65 47.50Q65.55 47.55 65.55 47.70L65.55 49.40Q65.55 49.65 65.38 49.83Q65.20 50 64.95 50L57.85 50Q57.60 50 57.43 49.83Q57.25 49.65 57.25 49.40L57.25 15.60Q57.25 15.35 57.43 15.17Q57.60 15 57.85 15L64.95 15Q65.20 15 65.38 15.17Q65.55 15.35 65.55 15.60L65.55 26.05Q65.55 26.20 65.65 26.22Q65.75 26.25 65.85 26.15Q67.70 23.75 71.35 23.75Q74.95 23.75 77.48 25.65Q80 27.55 81.15 30.65M72.65 41.40Q73.55 39.75 73.55 37.10Q73.55 34.35 72.55 32.65Q71.55 30.85 69.50 30.85Q67.60 30.85 66.55 32.60Q65.60 34.20 65.60 37.10Q65.60 39.75 66.45 41.35Q67.50 43.30 69.50 43.30Q71.60 43.30 72.65 41.40ZM86.40 50Q86.15 50 85.98 49.83Q85.80 49.65 85.80 49.40L85.80 15.60Q85.80 15.35 85.98 15.17Q86.15 15 86.40 15L93.50 15Q93.75 15 93.93 15.17Q94.10 15.35 94.10 15.60L94.10 49.40Q94.10 49.65 93.93 49.83Q93.75 50 93.50 50L86.40 50ZM102.55 21.85Q100.65 21.85 99.43 20.63Q98.20 19.40 98.20 17.50Q98.20 15.55 99.43 14.35Q100.65 13.15 102.55 13.15Q104.45 13.15 105.68 14.35Q106.90 15.55 106.90 17.50Q106.90 19.35 105.68 20.60Q104.45 21.85 102.55 21.85M98.95 50Q98.70 50 98.53 49.83Q98.35 49.65 98.35 49.40L98.35 24.75Q98.35 24.50 98.53 24.32Q98.70 24.15 98.95 24.15L106.05 24.15Q106.30 24.15 106.48 24.32Q106.65 24.50 106.65 24.75L106.65 49.40Q106.65 49.65 106.48 49.83Q106.30 50 106.05 50L98.95 50ZM121.95 50.40Q118.40 50.40 115.75 49.42Q113.10 48.45 111.68 46.67Q110.25 44.90 110.25 42.60L110.25 42.05Q110.25 41.80 110.43 41.63Q110.60 41.45 110.85 41.45L117.60 41.45Q117.85 41.45 118.03 41.63Q118.20 41.80 118.20 42.05Q118.20 43 119.25 43.63Q120.30 44.25 121.90 44.25Q123.30 44.25 124.13 43.77Q124.95 43.30 124.95 42.50Q124.95 41.70 124.08 41.33Q123.20 40.95 121.25 40.60Q118.10 40 116.15 39.15Q113.60 38.10 112.10 36.52Q110.60 34.95 110.60 32.20Q110.60 28.30 113.63 26.02Q116.65 23.75 121.60 23.75Q124.95 23.75 127.48 24.82Q130 25.90 131.40 27.85Q132.80 29.80 132.80 32.35Q132.80 32.60 132.63 32.77Q132.45 32.95 132.20 32.95L125.65 32.95Q125.40 32.95 125.23 32.77Q125.05 32.60 125.05 32.35Q125.05 31.40 124.15 30.80Q123.25 30.20 121.70 30.20Q120.30 30.20 119.43 30.67Q118.55 31.15 118.55 32Q118.55 32.85 119.50 33.22Q120.45 33.60 122.70 34.05Q125.60 34.65 126.75 35Q129.85 36 131.58 37.70Q133.30 39.40 133.30 42.25Q133.30 46.15 130.23 48.27Q127.15 50.40 121.95 50.40ZM151.05 23.75Q154.95 23.75 157.45 26.22Q159.95 28.70 159.95 32.95L159.95 49.40Q159.95 49.65 159.78 49.83Q159.60 50 159.35 50L152.25 50Q152 50 151.83 49.83Q151.65 49.65 151.65 49.40L151.65 34.75Q151.65 33.05 150.70 31.95Q149.75 30.85 148.25 30.85Q146.70 30.85 145.75 31.93Q144.80 33 144.80 34.75L144.80 49.40Q144.80 49.65 144.63 49.83Q144.45 50 144.20 50L137.10 50Q136.85 50 136.68 49.83Q136.50 49.65 136.50 49.40L136.50 15.60Q136.50 15.35 136.68 15.17Q136.85 15 137.10 15L144.20 15Q144.45 15 144.63 15.17Q144.80 15.35 144.80 15.60L144.80 26.60Q144.80 26.80 144.88 26.82Q144.95 26.85 145.05 26.70Q146.95 23.75 151.05 23.75ZM186.60 33.20Q187.60 35.60 187.60 38.35Q187.60 41.05 186.60 43.40Q185.30 46.65 182.35 48.52Q179.40 50.40 175.40 50.40Q171.50 50.40 168.50 48.48Q165.50 46.55 164.15 43.25Q163.35 41.25 163.20 38.85Q163.20 38.25 163.80 38.25L171 38.25Q171.60 38.25 171.65 38.85Q171.75 40.10 172.25 41.25Q172.65 42.25 173.45 42.77Q174.25 43.30 175.35 43.30Q177.45 43.30 178.50 41.40Q179.20 40.15 179.20 38.10Q179.20 36.10 178.50 34.60Q177.45 32.75 175.30 32.75Q174.75 32.75 174.08 33.13Q173.40 33.50 172.35 34.25Q172.10 34.40 171.95 34.40Q171.65 34.40 171.50 34.10L167.95 29.10Q167.80 28.85 167.80 28.70Q167.80 28.40 168.05 28.25L175.75 22.40Q175.85 22.30 175.83 22.20Q175.80 22.10 175.65 22.10L164.70 22.10Q164.45 22.10 164.28 21.92Q164.10 21.75 164.10 21.50L164.10 15.60Q164.10 15.35 164.28 15.17Q164.45 15 164.70 15L186.50 15Q186.75 15 186.93 15.17Q187.10 15.35 187.10 15.60L187.10 22.25Q187.10 22.70 186.75 23L180.70 27.75Q180.60 27.85 180.63 27.95Q180.65 28.05 180.80 28.10Q184.80 29.15 186.60 33.20Z"/></g></g></svg>